<svg width="16" height="16" viewBox="0 0 16 16" fill="none" xmlns="http://www.w3.org/2000/svg">
<g id="icon/&#233;&#151;&#174;&#229;&#143;&#183;">
<path id="Vector" d="M8 0C10.1217 0 12.1566 0.842855 13.6569 2.34315C15.1571 3.84344 16 5.87827 16 8C16 10.1217 15.1571 12.1566 13.6569 13.6569C12.1566 15.1571 10.1217 16 8 16C5.87827 16 3.84344 15.1571 2.34315 13.6569C0.842855 12.1566 0 10.1217 0 8C0 5.87827 0.842855 3.84344 2.34315 2.34315C3.84344 0.842855 5.87827 0 8 0ZM7.91771 10.7737C7.65486 10.7737 7.44114 10.8491 7.27771 11.0251C7.18607 11.1042 7.11349 11.2029 7.0654 11.3139C7.0173 11.4249 6.99495 11.5454 7 11.6663C7 11.9177 7.088 12.1314 7.27657 12.3074C7.35826 12.3948 7.4578 12.4636 7.56842 12.5092C7.67904 12.5547 7.79817 12.576 7.91771 12.5714C8.16914 12.5714 8.39543 12.4834 8.584 12.32C8.67063 12.2351 8.7388 12.1332 8.78423 12.0207C8.82966 11.9082 8.85137 11.7876 8.848 11.6663C8.85268 11.5468 8.83163 11.4278 8.78628 11.3171C8.74093 11.2065 8.67234 11.1069 8.58514 11.0251C8.40914 10.8491 8.18286 10.7737 7.91886 10.7737H7.91771ZM8.13257 3.41943C7.21486 3.41943 6.48571 3.68343 5.95771 4.224C5.55439 4.61712 5.30501 5.11477 5.20391 5.72214C5.14345 6.08543 5.45056 6.38629 5.81886 6.38629V6.38629C6.18715 6.38629 6.47172 6.08354 6.55134 5.72395C6.60697 5.47269 6.69793 5.26038 6.824 5.09143C7.07543 4.73943 7.49029 4.56343 8.05714 4.56343C8.50971 4.56343 8.86171 4.68914 9.112 4.94057C9.352 5.192 9.47771 5.53143 9.47771 5.97143C9.47771 6.29829 9.36343 6.6 9.13829 6.88914L8.92343 7.128C8.14514 7.81943 7.66629 8.33486 7.49143 8.68686C7.3742 8.92132 7.31374 9.16938 7.28285 9.42287C7.23788 9.7919 7.5528 10.0949 7.92457 10.0949V10.0949C8.29634 10.0949 8.57155 9.78806 8.65375 9.42549C8.68373 9.29328 8.72943 9.16406 8.79886 9.03886C8.912 8.81257 9.088 8.59886 9.31314 8.39771C9.91771 7.88229 10.2697 7.55543 10.3829 7.41714C10.6834 7.01486 10.8469 6.49943 10.8469 5.88343C10.8469 5.12914 10.5954 4.52571 10.1051 4.08571C9.60229 3.63314 8.94857 3.41943 8.13143 3.41943H8.13257Z" fill="#989898"/>
</g>
</svg>
