<svg width="24" height="24" viewBox="0 0 24 24" xmlns="http://www.w3.org/2000/svg">
<g id="icon/&#228;&#188;&#151;&#231;&#173;&#185;">
<path id="Vector" d="M20.2759 16.9853C19.7934 17.2942 19.1365 17.5393 18.307 17.7187C17.4779 17.8989 16.5755 17.9899 15.6009 17.9899C14.6257 17.9899 13.7234 17.8989 12.8934 17.7187C12.0642 17.5383 11.4075 17.2942 10.9246 16.9853C10.442 16.6774 10.2002 16.3429 10.2002 15.9817V14.649C10.7579 15.0879 11.5194 15.4198 12.4846 15.6451C13.4507 15.8693 14.4885 15.9817 15.5999 15.9817C16.7111 15.9817 17.7491 15.8694 18.7153 15.6451C19.6804 15.4198 20.4426 15.0879 21 14.649V15.9817C21 16.3429 20.7585 16.6774 20.2759 16.9853ZM20.2749 13.9741C19.7923 14.2826 19.136 14.5275 18.3064 14.7076C17.4769 14.8877 16.5751 14.9782 15.5998 14.9782C14.6252 14.9782 13.7223 14.8877 12.8933 14.7076C12.0642 14.5265 11.4074 14.2826 10.9246 13.9741C10.442 13.6657 10.2002 13.3312 10.2002 12.9705V11.6373C10.7579 12.0763 11.5194 12.4091 12.4845 12.6329C13.4507 12.8582 14.4885 12.9705 15.5998 12.9705C16.7111 12.9705 17.7491 12.8582 18.7142 12.6329C19.6793 12.4087 20.4421 12.0763 20.9994 11.6373V12.9705C20.9994 13.3312 20.7574 13.6657 20.2749 13.9741ZM20.2749 10.9629C19.7923 11.2708 19.136 11.5158 18.3064 11.6959C17.4769 11.8765 16.5751 11.9665 15.5998 11.9665C14.6252 11.9665 13.7223 11.877 12.8928 11.697C12.0633 11.5169 11.4067 11.273 10.9239 10.9637C10.4411 10.6553 10.1995 10.3208 10.1995 9.95986V8.95606C10.1995 8.59521 10.4411 8.26046 10.9239 7.95221C11.4067 7.64389 12.0633 7.39959 12.8928 7.21902C13.7223 7.03899 14.6252 6.94841 15.5998 6.94841C16.5751 6.94841 17.4769 7.03899 18.3064 7.21902C19.136 7.39959 19.7923 7.64378 20.2749 7.95221C20.7574 8.26044 20.9994 8.59519 20.9994 8.95606V9.95906C20.9994 10.32 20.7574 10.6546 20.2749 10.9629V10.9629ZM9.20506 8.6982C8.10528 8.69243 7.08199 8.59489 6.14165 8.39599C5.17423 8.19142 4.40822 7.91418 3.8451 7.56287C3.28168 7.21236 3 6.83232 3 6.42211V5.28143C3 4.87134 3.28168 4.49096 3.84512 4.14068C4.40823 3.79051 5.17425 3.51301 6.14167 3.30735C7.11003 3.1028 8.16284 3 9.30019 3C10.4378 3 11.4904 3.1028 12.458 3.30735C13.4256 3.51301 14.1918 3.79051 14.7547 4.14068C15.3176 4.49096 15.5999 4.87134 15.5999 5.28143V5.7273L13.5574 5.91143C11.9511 5.91143 9.13026 6.95075 9.20506 8.6982V8.6982ZM9.1764 9.8401V12.1189C8.08802 12.1114 7.0734 12.0144 6.14271 11.8173C5.17529 11.6117 4.40906 11.3342 3.84584 10.984C3.28272 10.6335 3.00072 10.2534 3.00072 9.8432V8.32829C3.65121 8.8274 4.53956 9.20535 5.6659 9.45997C6.75658 9.70712 7.92763 9.83212 9.1764 9.8401V9.8401ZM9.1764 13.2624V15.5412C8.08823 15.5338 7.07415 15.4357 6.14271 15.2392C5.17529 15.0335 4.40906 14.7566 3.84584 14.4055C3.28272 14.0556 3.00072 13.6759 3.00072 13.2656V11.7503C3.65121 12.2493 4.53956 12.6265 5.6659 12.8826C6.75658 13.1294 7.92763 13.2544 9.1764 13.2624V13.2624ZM9.1764 16.6833V18.8182C9.1764 18.8677 9.18803 18.9136 9.19022 18.9626C8.09629 18.9562 7.07769 18.8593 6.14271 18.661C5.17529 18.4559 4.40906 18.1784 3.84584 17.8279C3.28272 17.4774 3.00072 17.0977 3.00072 16.687V15.1726C3.65132 15.6717 4.53964 16.0477 5.6659 16.3035C6.75658 16.5501 7.92763 16.6753 9.1764 16.6833V16.6833ZM15.5998 18.9924C16.7111 18.9924 17.7491 18.88 18.7142 18.6552C19.6793 18.4304 20.4421 18.0985 20.9994 17.6597V18.9924C20.9994 19.3535 20.7574 19.6881 20.2749 19.996C19.7923 20.3044 19.1359 20.5488 18.3064 20.7294C17.4769 20.9094 16.5751 21 15.5998 21C14.6252 21 13.7223 20.9105 12.8933 20.7305C12.0642 20.5499 11.4074 20.3054 10.9246 19.9971C10.442 19.6886 10.2002 19.3541 10.2002 18.9929V17.6603C10.7579 18.0997 11.5194 18.4304 12.4845 18.6552C13.4507 18.88 14.4887 18.9924 15.5998 18.9924Z" />
</g>
</svg>
