<svg xmlns="http://www.w3.org/2000/svg" xmlns:xlink="http://www.w3.org/1999/xlink" width="48" height="48" viewBox="0 0 48 48"><defs><style>.a{stroke:rgba(0,0,0,0);}.b{clip-path:url(#a);}</style><clipPath id="a"><rect class="a" width="48" height="48" transform="translate(93.231 1485)"/></clipPath></defs><g class="b" transform="translate(-93.231 -1485)"><g transform="translate(-3)"><path class="c" d="M-893.769-1792h-24a8.009,8.009,0,0,1-8-8v-20a8.009,8.009,0,0,1,8-8h24a8.009,8.009,0,0,1,8,8v4.528a6.018,6.018,0,0,0-2.4-1.312V-1820a5.607,5.607,0,0,0-5.6-5.6h-24a5.606,5.606,0,0,0-5.6,5.6v20a5.606,5.606,0,0,0,5.6,5.6h24a5.607,5.607,0,0,0,5.6-5.6v-5.216a6.02,6.02,0,0,0,2.4-1.312V-1800A8.009,8.009,0,0,1-893.769-1792Z" transform="translate(1025 3319)"/><path class="c" d="M7,2.4A3.6,3.6,0,0,0,7,9.6h3a3.6,3.6,0,1,0,0-7.2H7M7,0h3a6,6,0,0,1,0,12H7A6,6,0,0,1,7,0Z" transform="translate(125.231 1502)"/><path class="c" d="M10,1.2H0A1.2,1.2,0,0,1-1.2,0,1.2,1.2,0,0,1,0-1.2H10A1.2,1.2,0,0,1,11.2,0,1.2,1.2,0,0,1,10,1.2Z" transform="translate(107.731 1501.5)"/></g></g></svg>