<svg width="189" height="60" viewBox="0 0 189 60" fill="none" xmlns="http://www.w3.org/2000/svg">
<g id="LOGO">
<g id="icon/logo">
<path id="Union" fill-rule="evenodd" clip-rule="evenodd" d="M27.387 18.2499H35.7501C42.2395 18.2499 47.5001 23.5105 47.5001 29.9999C47.5001 36.4892 42.2395 41.7499 35.7501 41.7499H30.2501L25.387 53.7499H35.7501C48.8669 53.7499 59.5001 43.1166 59.5001 29.9999C59.5001 16.8831 48.8669 6.24988 35.7501 6.24988H32.2501L27.387 18.2499ZM32.25 6.25H19.75L0.5 53.75H13L32.25 6.25Z" fill="white"/>
</g>
<g id="Frame" clip-path="url(#clip0_314_9167)">
<path id="Vector" d="M92.5794 15.0463C94.4602 14.9969 96.3277 15.3829 98.0428 16.1757C99.4862 16.8305 100.709 17.9068 101.559 19.2701C102.378 20.6703 102.791 22.28 102.752 23.9117C102.745 24.5971 102.68 25.2804 102.556 25.9539C102.382 27.2651 101.945 28.5253 101.272 29.6545C100.6 30.7837 99.7054 31.7575 98.6466 32.5142C96.1735 34.129 93.2749 34.9231 90.3457 34.7885H85.4708L83.705 45.0309H78L83.0711 15.0618L92.5794 15.0463ZM96.6845 24.0973C96.7156 23.5202 96.6047 22.9444 96.3621 22.4227C96.1195 21.9009 95.7529 21.45 95.296 21.1114C94.1389 20.3626 92.7837 20.0004 91.4173 20.0747H87.946L86.3009 29.7446H90.2249C91.6819 29.7799 93.1211 29.411 94.3905 28.677C94.9984 28.2941 95.5139 27.775 95.8981 27.1587C96.2824 26.5424 96.5254 25.8449 96.6091 25.1185C96.6544 24.6234 96.6845 24.283 96.6845 24.0973V24.0973Z" fill="white"/>
<path id="Vector_2" d="M116.969 15.0466C119.342 14.9854 121.693 15.5163 123.821 16.5938C125.788 17.6206 127.431 19.1976 128.56 21.1424C129.726 23.2312 130.316 25.606 130.265 28.0121C130.268 29.0858 130.177 30.1575 129.994 31.2147C129.581 33.9755 128.502 36.587 126.855 38.8114C125.314 40.8445 123.293 42.4419 120.984 43.453C118.57 44.5048 115.969 45.0316 113.347 45.0002H102.963L108.034 15.0311L116.969 15.0466ZM124.244 28.1513C124.303 27.0519 124.137 25.9521 123.754 24.9232C123.372 23.8942 122.783 22.9592 122.025 22.1791C120.282 20.6465 118.023 19.8745 115.731 20.0285H112.969L109.619 39.8944H113.256C115.857 40.0386 118.426 39.245 120.516 37.651C122.478 35.8482 123.729 33.3717 124.032 30.6887C124.184 29.8521 124.255 29.0021 124.244 28.1513V28.1513Z" fill="white"/>
<path id="Vector_3" d="M133.42 35.0206L134.22 30.2706H149.191L148.391 35.0206H133.42Z" fill="white"/>
<path id="Vector_4" d="M155.666 25.8923L156.587 20.1985L166.412 15H170.94L165.748 45.0155H159.877L163.907 21.591L155.666 25.8923Z" fill="white"/>
</g>
</g>
<defs>
<clipPath id="clip0_314_9167">
<rect width="93" height="30" fill="white" transform="translate(78 15)"/>
</clipPath>
</defs>
</svg>
