<svg xmlns="http://www.w3.org/2000/svg" xmlns:xlink="http://www.w3.org/1999/xlink" width="48" height="48" viewBox="0 0 48 48"><defs><style>.a{stroke:rgba(0,0,0,0);}.b{clip-path:url(#a);}.e,.f{stroke:rgb(0,0,0);}</style><clipPath id="a"><rect class="a" width="48" height="48" transform="translate(93.231 1487)"/></clipPath></defs><g class="b" transform="translate(-93.231 -1487)"><g class="c" transform="translate(97.236 1503.658)"><path class="e" d="M3,0,17.08-11.507a6.339,6.339,0,0,1,3.2-1.151,6.273,6.273,0,0,1,3.183,1.151L37,0c1.175.967,2.992,2.108,3,4V24a4,4,0,0,1-4,4H4a4,4,0,0,1-4-4V4C-.108,2.15,1.7,1.058,3,0Z"/><path class="f" d="M 20.27496147155762 -10.25820159912109 C 19.6920223236084 -10.25820159912109 18.87948036193848 -9.828130722045898 18.52812194824219 -9.591089248657227 L 4.515239715576172 1.861198425292969 C 4.313270568847656 2.025618553161621 4.107261657714844 2.185418128967285 3.908031463623047 2.339958190917969 C 3.372779846191406 2.755138397216797 2.376472473144531 3.527948379516602 2.395893096923828 3.859678268432617 L 2.400001525878906 3.929778099060059 L 2.400001525878906 23.99999809265137 C 2.400001525878906 24.88223838806152 3.117759704589844 25.59999847412109 4 25.59999847412109 L 36 25.59999847412109 C 36.88224029541016 25.59999847412109 37.60000228881836 24.88223838806152 37.60000228881836 23.99999809265137 L 37.60000228881836 4.007989883422852 C 37.59466171264648 3.525481224060059 36.67856597900391 2.805536270141602 36.00934982299805 2.279618263244629 C 35.83303070068359 2.141057968139648 35.65071105957031 1.99777889251709 35.47509002685547 1.853278160095215 L 35.44593048095703 1.828888893127441 L 21.98364639282227 -9.610467910766602 C 21.6872730255127 -9.810619354248047 20.86290168762207 -10.25820159912109 20.27496147155762 -10.25820159912109 M 20.27496147155762 -12.65820121765137 C 21.89474105834961 -12.65820121765137 23.45831108093262 -11.50683212280273 23.45831108093262 -11.50683212280273 L 37 -1.9073486328125e-06 C 38.17499160766602 0.9667987823486328 39.99170303344727 2.1083984375 40 3.999998092651367 L 40 23.99999809265137 C 40 26.20913887023926 38.20914077758789 27.99999809265137 36 27.99999809265137 L 4 27.99999809265137 C 1.790863037109375 27.99999809265137 0 26.20913887023926 0 23.99999809265137 L 0 3.999998092651367 C -0.10833740234375 2.150148391723633 1.70001220703125 1.058348655700684 3 -1.9073486328125e-06 L 17.07962036132812 -11.50683212280273 C 17.07962036132812 -11.50683212280273 18.65518188476562 -12.65820121765137 20.27496147155762 -12.65820121765137 Z"/></g><path class="d" d="M10,1.2H1A1.2,1.2,0,0,1-.2,0,1.2,1.2,0,0,1,1-1.2h9A1.2,1.2,0,0,1,11.2,0,1.2,1.2,0,0,1,10,1.2Z" transform="translate(117.233 1526.5) rotate(-90)"/></g></svg>