<svg width="101" height="101" viewBox="0 0 101 101" fill="none" xmlns="http://www.w3.org/2000/svg">
<g id="Frame 906">
<circle id="Ellipse 4" cx="50.3013" cy="50.3013" r="50" transform="rotate(30 50.3013 50.3013)" fill="#FFE0D4"/>
<g id="Group 22">
<path id="L" d="M69.4421 22.9422L69.0588 23.6061L65.9803 21.8287L66.3636 21.1648L69.4421 22.9422ZM69.6957 15.7646L66.141 21.9215L65.3249 21.4503L68.8796 15.2934L69.6957 15.7646Z" fill="black"/>
<path id="I" d="M77.3704 21.3147L72.6165 26.6008L71.9165 25.9698L76.6705 20.6837L77.3704 21.3147Z" fill="black"/>
<path id="V" d="M77.7923 30.8577L83.8964 29.0039L84.4954 29.8302L77.2037 31.8844L76.7767 31.2953L77.7923 30.8577ZM81.5179 25.7226L77.8611 30.9526L77.1406 31.7974L76.7136 31.2083L80.9189 24.8964L81.5179 25.7226Z" fill="black"/>
<path id="E" d="M82.0319 39.4576L81.332 39.7704L79.8056 36.3291L80.5055 36.0163L82.0319 39.4576ZM86.3735 33.6025L79.8828 36.5032L79.5007 35.6417L85.9914 32.7411L86.3735 33.6025ZM84.8301 37.6616L84.1302 37.9744L82.8058 34.9883L83.5057 34.6756L84.8301 37.6616ZM87.8029 36.8251L87.0986 37.1399L85.592 33.7432L86.2963 33.4284L87.8029 36.8251Z" fill="black"/>
<path id="A" d="M89.5026 50.987L83.0261 48.6417L83.0273 47.6798L90.1332 50.3808L90.1325 51.0009L89.5026 50.987ZM83.0206 52.9679L89.5031 50.6013L90.133 50.5858L90.1322 51.206L83.0194 53.9347L83.0206 52.9679ZM85.6526 52.8425L84.8811 52.8435L84.8862 48.8493L85.6576 48.8484L85.6526 52.8425Z" fill="black"/>
<path id="U" d="M88.8616 60.6773L88.6659 61.5942L83.9605 60.5982C83.4383 60.4877 83.0284 60.2795 82.7308 59.9736C82.4333 59.6678 82.2381 59.3037 82.1452 58.8814C82.0547 58.463 82.0574 58.0293 82.1532 57.5805C82.2538 57.1093 82.4308 56.7009 82.6844 56.3553C82.9404 56.0135 83.2657 55.768 83.6604 55.6186C84.0544 55.4724 84.5126 55.4546 85.0349 55.5651L89.7402 56.5611L89.5455 57.4731L84.8402 56.4772C84.4771 56.4004 84.1635 56.4039 83.8993 56.4877C83.6351 56.5715 83.4202 56.7207 83.2546 56.9352C83.0883 57.1529 82.9712 57.4209 82.9032 57.7392C82.8346 58.0607 82.8321 58.353 82.8958 58.6161C82.9588 58.8823 83.0939 59.1072 83.301 59.2908C83.5081 59.4743 83.7932 59.6046 84.1562 59.6814L88.8616 60.6773Z" fill="black"/>
<path id="C" d="M81.3956 66.6948L81.014 67.5511C80.6235 67.3239 80.3085 67.0431 80.0691 66.7086C79.8297 66.374 79.6924 65.9905 79.657 65.5579C79.6247 65.1267 79.7244 64.6509 79.9563 64.1306C80.1259 63.75 80.3516 63.4353 80.6335 63.1866C80.914 62.9409 81.2349 62.7648 81.596 62.6582C81.96 62.5529 82.3536 62.5214 82.7767 62.5636C83.2015 62.61 83.6414 62.7345 84.0965 62.9369L84.7434 63.2247C85.1984 63.4271 85.5838 63.6698 85.8996 63.9528C86.2171 64.2401 86.4578 64.5556 86.6218 64.8994C86.7845 65.2461 86.8657 65.6117 86.8654 65.9964C86.865 66.381 86.7754 66.774 86.5966 67.1754C86.3779 67.666 86.1009 68.0398 85.7655 68.2967C85.43 68.5537 85.057 68.703 84.6464 68.7448C84.2374 68.7909 83.8088 68.741 83.3607 68.595L83.7423 67.7387C84.0642 67.832 84.3589 67.8705 84.6263 67.8541C84.8968 67.839 85.1378 67.7539 85.3495 67.5987C85.5613 67.4434 85.742 67.1978 85.8917 66.8619C86.0202 66.5734 86.0785 66.2947 86.0665 66.0258C86.0531 65.7597 85.9785 65.5074 85.8425 65.2688C85.7051 65.0331 85.5118 64.8153 85.2623 64.6152C85.0129 64.4152 84.7157 64.2384 84.3707 64.085L83.7149 63.7932C83.3967 63.6516 83.0832 63.5514 82.7745 63.4924C82.4644 63.4364 82.1733 63.4299 81.9012 63.4727C81.6291 63.5155 81.385 63.6154 81.169 63.7722C80.956 63.9304 80.7852 64.1537 80.6567 64.4422C80.4937 64.8079 80.4219 65.1251 80.4412 65.3937C80.4604 65.6624 80.5541 65.9 80.7222 66.1066C80.889 66.3162 81.1135 66.5122 81.3956 66.6948Z" fill="black"/>
<path id="T" d="M82.2364 74.3494L76.486 70.1688L77.0311 69.4181L82.7815 73.5987L82.2364 74.3494ZM80.8938 76.1985L80.2697 75.7449L83.4972 71.2998L84.1212 71.7535L80.8938 76.1985Z" fill="black"/>
<path id="I_2" d="M76.5919 80.4788L71.8394 75.1914L72.5392 74.5602L77.2917 79.8476L76.5919 80.4788Z" fill="black"/>
<path id="O" d="M66.0817 83.6067L65.8576 83.2174C65.5913 82.7547 65.4103 82.3066 65.3147 81.8729C65.219 81.4393 65.2058 81.0313 65.2749 80.649C65.344 80.2667 65.4918 79.9197 65.718 79.6081C65.9415 79.2982 66.2406 79.0347 66.6152 78.8178C66.9786 78.6074 67.3514 78.4818 67.7336 78.441C68.113 78.4019 68.4878 78.4463 68.8582 78.5742C69.2257 78.7036 69.5756 78.9167 69.9078 79.2133C70.2401 79.5099 70.5394 79.8896 70.8057 80.3522L71.0298 80.7415C71.2962 81.2042 71.4749 81.6518 71.5661 82.0842C71.6561 82.5211 71.6651 82.9315 71.5932 83.3155C71.5229 83.7023 71.376 84.0506 71.1525 84.3606C70.9262 84.6722 70.6314 84.9332 70.268 85.1436C69.8933 85.3605 69.5163 85.4886 69.1369 85.5277C68.7548 85.5684 68.3805 85.5218 68.0142 85.3879C67.6467 85.2584 67.2996 85.0437 66.973 84.7438C66.6452 84.4484 66.3481 84.0694 66.0817 83.6067ZM66.6647 82.7501L66.8937 83.1478C67.1048 83.5146 67.3296 83.817 67.5681 84.0551C67.8037 84.2948 68.0486 84.469 68.3027 84.5776C68.5568 84.6863 68.8165 84.7296 69.0818 84.7076C69.3443 84.6873 69.6065 84.6013 69.8685 84.4496C70.122 84.3028 70.3232 84.1205 70.472 83.9026C70.618 83.6865 70.709 83.44 70.745 83.1634C70.7783 82.8883 70.7531 82.5869 70.6696 82.2591C70.5861 81.9314 70.4388 81.5841 70.2276 81.2173L69.9987 80.8196C69.7859 80.45 69.5581 80.1456 69.3152 79.9063C69.0739 79.6699 68.824 79.4967 68.5654 79.3869C68.3057 79.2815 68.046 79.2382 67.7863 79.2569C67.5239 79.2772 67.2658 79.3608 67.0123 79.5076C66.7475 79.6609 66.5407 79.8465 66.3919 80.0643C66.2431 80.2821 66.1535 80.5277 66.1231 80.8011C66.0915 81.079 66.1202 81.3801 66.2094 81.7047C66.3002 82.032 66.452 82.3805 66.6647 82.7501Z" fill="black"/>
<path id="N" d="M60.0295 89.3014L57.8424 82.5368L58.7429 82.2427L63.8321 86.3492L62.1452 81.1318L63.041 80.8392L65.2281 87.6039L64.3323 87.8964L59.2247 83.7805L60.916 89.0119L60.0295 89.3014Z" fill="black"/>
<path id="&#226;&#128;&#162;" d="M47.3319 86.772L47.3108 86.9711C47.2812 87.2495 47.1694 87.4702 46.9753 87.6333C46.778 87.7961 46.5271 87.8616 46.2228 87.83C45.9152 87.798 45.682 87.6821 45.5232 87.4823C45.3644 87.2825 45.2997 87.0434 45.3293 86.765L45.3504 86.5659C45.3797 86.2908 45.4929 86.0719 45.6903 85.9091C45.884 85.7492 46.1347 85.6853 46.4423 85.7173C46.7466 85.749 46.9784 85.8631 47.1375 86.0596C47.2963 86.2594 47.3612 86.4969 47.3319 86.772Z" fill="black"/>
<path id="L_2" d="M31.3267 78.2841L31.71 77.6202L34.7885 79.3976L34.4052 80.0615L31.3267 78.2841ZM31.0731 85.4617L34.6278 79.3048L35.4439 79.776L31.8892 85.9329L31.0731 85.4617Z" fill="black"/>
<path id="I_3" d="M23.3986 79.9115L28.1526 74.6254L28.8525 75.2564L24.0985 80.5425L23.3986 79.9115Z" fill="black"/>
<path id="V_2" d="M22.9765 70.3685L16.8724 72.2222L16.2734 71.396L23.5651 69.3418L23.9921 69.9309L22.9765 70.3685ZM19.2509 75.5036L22.9077 70.2736L23.6282 69.4288L24.0552 70.0179L19.8499 76.3298L19.2509 75.5036Z" fill="black"/>
<path id="E_2" d="M18.7366 61.7686L19.4365 61.4558L20.963 64.8971L20.2631 65.2099L18.7366 61.7686ZM14.395 67.6237L20.8857 64.723L21.2679 65.5845L14.7771 68.4851L14.395 67.6237ZM15.9384 63.5646L16.6383 63.2518L17.9628 66.2378L17.2629 66.5506L15.9384 63.5646ZM12.9656 64.4011L13.67 64.0863L15.1766 67.483L14.4723 67.7978L12.9656 64.4011Z" fill="black"/>
<path id="A_2" d="M11.2662 50.2392L17.7427 52.5845L17.7415 53.5464L10.6356 50.8454L10.6363 50.2253L11.2662 50.2392ZM17.7482 48.2583L11.2657 50.6249L10.6358 50.6404L10.6366 50.0202L17.7494 47.2915L17.7482 48.2583ZM15.1162 48.3837L15.8877 48.3827L15.8826 52.3769L15.1111 52.3778L15.1162 48.3837Z" fill="black"/>
<path id="U_2" d="M11.9072 40.549L12.1029 39.6322L16.8083 40.6281C17.3305 40.7386 17.7404 40.9468 18.038 41.2527C18.3355 41.5586 18.5307 41.9226 18.6236 42.3449C18.7141 42.7633 18.7114 43.197 18.6156 43.6458C18.515 44.117 18.338 44.5254 18.0844 44.871C17.8284 45.2128 17.5031 45.4583 17.1084 45.6077C16.7144 45.7539 16.2562 45.7717 15.7339 45.6612L11.0286 44.6653L11.2233 43.7532L15.9286 44.7491C16.2917 44.8259 16.6053 44.8225 16.8695 44.7386C17.1337 44.6548 17.3486 44.5056 17.5142 44.2911C17.6805 44.0735 17.7976 43.8055 17.8656 43.4871C17.9342 43.1656 17.9367 42.8733 17.873 42.6103C17.81 42.344 17.6749 42.1192 17.4678 41.9356C17.2607 41.752 16.9756 41.6218 16.6126 41.5449L11.9072 40.549Z" fill="black"/>
<path id="C_2" d="M19.3729 34.5314L19.7545 33.6751C20.1451 33.9023 20.4601 34.1831 20.6994 34.5176C20.9388 34.8522 21.0762 35.2357 21.1115 35.6683C21.1439 36.0995 21.0441 36.5753 20.8123 37.0956C20.6427 37.4762 20.417 37.7909 20.1351 38.0396C19.8545 38.2853 19.5337 38.4614 19.1726 38.568C18.8085 38.6733 18.4149 38.7048 17.9918 38.6626C17.567 38.6162 17.1271 38.4917 16.6721 38.2893L16.0252 38.0015C15.5702 37.7991 15.1847 37.5564 14.8689 37.2734C14.5515 36.9861 14.3107 36.6706 14.1467 36.3268C13.984 35.9801 13.9029 35.6145 13.9032 35.2298C13.9035 34.8452 13.9931 34.4522 14.172 34.0508C14.3906 33.5602 14.6676 33.1864 15.0031 32.9295C15.3385 32.6725 15.7115 32.5232 16.1222 32.4814C16.5312 32.4353 16.9597 32.4852 17.4079 32.6312L17.0263 33.4875C16.7044 33.3942 16.4097 33.3557 16.1422 33.3721C15.8718 33.3872 15.6307 33.4723 15.419 33.6275C15.2073 33.7827 15.0266 34.0284 14.8769 34.3643C14.7484 34.6528 14.6901 34.9315 14.7021 35.2004C14.7154 35.4665 14.7901 35.7188 14.9261 35.9574C15.0634 36.1931 15.2568 36.4109 15.5062 36.611C15.7556 36.811 16.0529 36.9878 16.3979 37.1412L17.0537 37.433C17.3719 37.5746 17.6854 37.6748 17.9941 37.7338C18.3041 37.7898 18.5952 37.7963 18.8673 37.7535C19.1395 37.7107 19.3835 37.6108 19.5995 37.454C19.8126 37.2958 19.9833 37.0725 20.1119 36.784C20.2748 36.4183 20.3467 36.1011 20.3274 35.8325C20.3081 35.5638 20.2144 35.3262 20.0463 35.1196C19.8796 34.91 19.6551 34.714 19.3729 34.5314Z" fill="black"/>
<path id="T_2" d="M18.5324 26.8767L24.2828 31.0572L23.7377 31.808L17.9873 27.6274L18.5324 26.8767ZM19.875 25.0276L20.4991 25.4812L17.2716 29.9263L16.6476 29.4726L19.875 25.0276Z" fill="black"/>
<path id="I_4" d="M24.1769 20.7474L28.9294 26.0348L28.2296 26.666L23.4771 21.3786L24.1769 20.7474Z" fill="black"/>
<path id="O_2" d="M34.6868 17.6195L34.9109 18.0088C35.1773 18.4715 35.3583 18.9196 35.4539 19.3533C35.5495 19.7869 35.5628 20.1949 35.4936 20.5772C35.4245 20.9595 35.2768 21.3065 35.0505 21.6181C34.827 21.928 34.528 22.1915 34.1533 22.4084C33.7899 22.6188 33.4171 22.7444 33.0349 22.7852C32.6556 22.8243 32.2807 22.7799 31.9104 22.652C31.5429 22.5226 31.193 22.3095 30.8607 22.0129C30.5285 21.7163 30.2292 21.3366 29.9628 20.874L29.7387 20.4847C29.4724 20.022 29.2936 19.5744 29.2024 19.142C29.1124 18.7051 29.1034 18.2947 29.1753 17.9107C29.2457 17.5239 29.3926 17.1756 29.616 16.8656C29.8423 16.554 30.1372 16.293 30.5006 16.0826C30.8752 15.8657 31.2522 15.7376 31.6316 15.6985C32.0138 15.6578 32.3881 15.7044 32.7544 15.8383C33.1219 15.9678 33.469 16.1825 33.7956 16.4824C34.1234 16.7778 34.4205 17.1568 34.6868 17.6195ZM34.1039 18.4761L33.8749 18.0784C33.6637 17.7116 33.439 17.4092 33.2005 17.1711C32.9648 16.9314 32.72 16.7572 32.4659 16.6486C32.2118 16.5399 31.9521 16.4966 31.6868 16.5186C31.4243 16.5389 31.162 16.6249 30.9001 16.7766C30.6465 16.9234 30.4454 17.1057 30.2966 17.3236C30.1506 17.5397 30.0596 17.7862 30.0235 18.0628C29.9903 18.3379 30.0154 18.6393 30.0989 18.967C30.1825 19.2948 30.3298 19.6421 30.5409 20.0089L30.7699 20.4066C30.9827 20.7762 31.2105 21.0806 31.4534 21.3199C31.6947 21.5563 31.9446 21.7295 32.2031 21.8393C32.4628 21.9447 32.7226 21.988 32.9822 21.9693C33.2447 21.949 33.5027 21.8654 33.7562 21.7186C34.021 21.5653 34.2278 21.3797 34.3766 21.1619C34.5254 20.9441 34.6151 20.6985 34.6455 20.4251C34.6771 20.1472 34.6483 19.846 34.5592 19.5215C34.4684 19.1942 34.3166 18.8457 34.1039 18.4761Z" fill="black"/>
<path id="N_2" d="M40.7393 11.925L42.9264 18.6896L42.0259 18.9836L36.9367 14.8771L38.6236 20.0946L37.7278 20.3871L35.5407 13.6225L36.4365 13.3299L41.5441 17.4459L39.8528 12.2144L40.7393 11.925Z" fill="black"/>
<path id="&#226;&#128;&#162;_2" d="M53.4369 14.4543L53.458 14.2552C53.4876 13.9768 53.5994 13.7561 53.7935 13.593C53.9908 13.4303 54.2417 13.3647 54.546 13.3964C54.8536 13.4284 55.0868 13.5442 55.2456 13.744C55.4044 13.9438 55.4691 14.1829 55.4395 14.4613L55.4184 14.6604C55.3891 14.9355 55.2759 15.1545 55.0785 15.3172C54.8848 15.4771 54.6341 15.541 54.3265 15.509C54.0222 15.4774 53.7904 15.3633 53.6313 15.1667C53.4724 14.9669 53.4076 14.7294 53.4369 14.4543Z" fill="black"/>
</g>
<g id="ethereum 2" clip-path="url(#clip0_392_6152)">
<path id="Vector" d="M57.8212 55.0499L47.3408 55.4289L42.4237 46.1602L57.9496 37.0539L57.8212 55.0499ZM46.4467 56.9775L41.5296 47.7087L42.5884 63.6603L56.9322 56.6014L46.4467 56.9775V56.9775Z" fill="black"/>
</g>
</g>
<defs>
<clipPath id="clip0_392_6152">
<rect width="18.7215" height="30.7224" fill="white" transform="translate(49.843 32.3735) rotate(30)"/>
</clipPath>
</defs>
</svg>
