<svg width="24" height="24" viewBox="0 0 24 24" xmlns="http://www.w3.org/2000/svg">
<g id="icon/&#233;&#128;&#128;&#229;&#135;&#186;">
<path id="Vector" d="M13.2384 3C14.8344 3 16.1413 4.10795 16.2437 5.50813L16.2497 5.68416V8.36947C16.2497 8.66515 15.9799 8.90561 15.6474 8.90561C15.5107 8.9089 15.3771 8.86695 15.269 8.78684C15.161 8.70674 15.0854 8.59343 15.0548 8.46611L15.0452 8.36947V5.68416C15.0452 4.84773 14.3285 4.15972 13.4119 4.08149L13.2384 4.07343H6.36663L10.4415 4.79596C10.7182 4.84487 10.9682 4.98475 11.1482 5.19134C11.3281 5.39792 11.4267 5.65816 11.4268 5.92692L11.4256 18.0327H13.2384C14.1779 18.0327 14.9488 17.3941 15.0368 16.5773L15.0452 16.4231V13.7378C15.0452 13.4421 15.315 13.2016 15.6474 13.2016C15.9426 13.2016 16.1895 13.3915 16.2401 13.6411L16.2497 13.7378V16.4231C16.2497 17.8463 15.0066 19.0106 13.4359 19.1015L13.2384 19.1072H11.4256V19.8505C11.4254 20.0287 11.3819 20.2045 11.2985 20.3639C11.2151 20.5233 11.094 20.662 10.9449 20.7691C10.7957 20.8762 10.6226 20.9487 10.4391 20.981C10.2556 21.0133 10.0667 21.0043 9.88744 20.955L3.86966 19.2913C3.61902 19.222 3.3987 19.0769 3.24187 18.8777C3.08503 18.6785 3.00015 18.4361 3 18.1868V5.68301C3 4.26097 4.24306 3.09664 5.81376 3.00575L6.0113 3H13.2384ZM18.3986 8.71462L18.4829 8.78135L20.6727 10.873C21.0786 11.2607 21.1063 11.8716 20.7594 12.2916L20.6727 12.3836L18.4829 14.4764C18.3767 14.5783 18.2343 14.6385 18.0839 14.6452C17.9335 14.6518 17.786 14.6044 17.6703 14.5123C17.5547 14.4202 17.4794 14.2901 17.4592 14.1476C17.4391 14.0051 17.4755 13.8605 17.5614 13.7424L17.6301 13.6618L19.1574 12.2041H13.2384C13.0787 12.2041 12.9255 12.1435 12.8125 12.0357C12.6996 11.9278 12.6361 11.7815 12.6361 11.6289C12.6361 11.4763 12.6996 11.33 12.8125 11.2221C12.9255 11.1142 13.0787 11.0536 13.2384 11.0536H19.1574L17.6301 9.59477C17.5305 9.49944 17.4691 9.37376 17.4565 9.23963C17.444 9.1055 17.4811 8.97142 17.5614 8.86074L17.6301 8.78135C17.7297 8.68606 17.8612 8.62718 18.0017 8.61499C18.1421 8.60279 18.2826 8.63805 18.3986 8.71462Z" />
</g>
</svg>
