<svg xmlns="http://www.w3.org/2000/svg" width="210" height="56" viewBox="0 0 210 56"><defs><style>.a{fill:#776cff;}.b{fill:#fff;}.c{fill:none;}</style></defs><g transform="translate(-200 -80)"><g transform="translate(87 -130)"><g transform="translate(113 210)"><path class="a" d="M28,0A28,28,0,1,1,0,28,28,28,0,0,1,28,0Z"/><g transform="translate(12 12.038)"><path class="b" d="M-1170.845,290.451a1.106,1.106,0,0,0-1.554-1.012,15.925,15.925,0,0,0-9.455,14.553,15.925,15.925,0,0,0,9.488,14.568,1.083,1.083,0,0,0,1.52-.99Z" transform="translate(1181.854 -288.107)"/><path class="b" d="M-889.886,267.777V272.9a1.081,1.081,0,0,0,.962,1.075,8.659,8.659,0,0,1,7.7,8.6,8.659,8.659,0,0,1-7.7,8.6,1.081,1.081,0,0,0-.962,1.075v5.123a1.08,1.08,0,0,0,1.153,1.08,15.925,15.925,0,0,0,14.771-15.882A15.924,15.924,0,0,0-888.733,266.7,1.08,1.08,0,0,0-889.886,267.777Z" transform="translate(905.809 -266.694)"/></g></g></g><rect class="c" width="210" height="56" transform="translate(200 80)"/><g transform="translate(-962.337 -730.475)"><path class="b" d="M.933,0H7a.933.933,0,0,1,.933.933V29.391A.933.933,0,0,1,7,30.324H.933A.933.933,0,0,1,0,29.391V.933A.933.933,0,0,1,.933,0Z" transform="translate(1234.682 823.14)"/><path class="b" d="M2150.559,823.122h-24.726a.933.933,0,0,0-.933.933v6.065a.933.933,0,0,0,.933.933h8.4v21.46a.933.933,0,0,0,.933.933h6.065a.933.933,0,0,0,.933-.933v-21.46h8.4a.933.933,0,0,0,.933-.933v-6.065A.933.933,0,0,0,2150.559,823.122Z" transform="translate(-820.417 0.018)"/><path class="b" d="M1437.892,823.122h-6.065a.933.933,0,0,0-.933.933v15.411l-11.771-15.876a1.219,1.219,0,0,0-.823-.468h-6.065a.933.933,0,0,0-.933.933v28.458a.933.933,0,0,0,.933.933h6.065a.933.933,0,0,0,.933-.933V837.054l11.741,15.836a.933.933,0,0,0,.853.557h6.065a.933.933,0,0,0,.933-.933V824.055A.933.933,0,0,0,1437.892,823.122Z" transform="translate(-164.554 0.018)"/><path class="b" d="M1809.271,831.132l-2.231,4.7a.885.885,0,0,0,.44,1.182c1.7.8,6.151,2.455,13.847,2.455,10.141,0,10.9-6.413,10.9-9.705,0-4.1-2.981-6.129-9.814-7.915-6.28-1.641-8-2.73-6.252-4.658.927-1.025,6.425-2.426,11.106.254a.953.953,0,0,0,1.3-.357l2.135-3.866a.88.88,0,0,0-.334-1.187c-1.805-1.07-6.723-3.555-12.28-2.723-7.95,1.19-11.2,6.164-10.5,10.786s4.834,6.934,13.158,8.4c2.326.525,3.845,1.1,3.053,2.627-.763,1.471-3.564,1.687-8.724,1.016a46.115,46.115,0,0,1-4.616-1.472A.946.946,0,0,0,1809.271,831.132Z" transform="translate(-529.13 14)"/><path class="b" d="M2458.753,852.133l-12.716-28.468a.933.933,0,0,0-.847-.542h-6.817a.933.933,0,0,0-.85.547l-12.511,28.468a.933.933,0,0,0,.85,1.319h6.856a.933.933,0,0,0,.869-.594l2.014-6.069h12.253l1.906,6.054a.933.933,0,0,0,.875.609h7.27A.933.933,0,0,0,2458.753,852.133Zm-20.785-11.4,3.475-8.908a.467.467,0,0,1,.872.008l3.294,8.9Z" transform="translate(-1097.896 0.018)"/></g></g></svg>