<svg width="24" height="24" viewBox="0 0 24 24" xmlns="http://www.w3.org/2000/svg">
<g id="icon/&#230;&#144;&#156;&#231;&#180;&#162;">
<path id="&#230;&#144;&#156;&#231;&#180;&#162;" d="M4.2493 5.03799C5.67655 3.43633 7.68093 2.46632 9.82257 2.34075C11.9642 2.21518 14.0682 2.94431 15.6728 4.3682C17.1863 5.66213 18.1722 7.46654 18.4435 9.43918C18.7149 11.4118 18.2528 13.4155 17.1448 15.07L21.8684 19.5615C22.0007 19.6764 22.1091 19.8162 22.1873 19.973C22.2656 20.1297 22.3122 20.3004 22.3244 20.4752C22.3366 20.65 22.3142 20.8255 22.2586 20.9916C22.2029 21.1578 22.1151 21.3113 22 21.4435C21.8851 21.5757 21.7453 21.6839 21.5885 21.762C21.4318 21.8401 21.2612 21.8866 21.0865 21.8988C20.9118 21.9109 20.7363 21.8885 20.5703 21.8328C20.4042 21.7771 20.2508 21.6893 20.1187 21.5743L15.279 16.9818C13.7801 18.0423 11.9672 18.5662 10.1337 18.4686C8.30018 18.3711 6.55313 17.6579 5.1752 16.4443C3.54172 15.0533 2.52683 13.0711 2.35324 10.9327C2.17965 8.79421 2.86154 6.67422 4.2493 5.03799ZM5.62136 6.23071C4.54196 7.50336 4.01156 9.15224 4.14661 10.8155C4.28165 12.4788 5.07112 14.0206 6.34168 15.1024C7.58983 16.2101 9.2264 16.7772 10.8923 16.6794C12.5582 16.5817 14.1173 15.827 15.2273 14.581C16.3067 13.3084 16.837 11.6594 16.702 9.99616C16.5669 8.33288 15.7776 6.79116 14.507 5.70931C13.2588 4.60168 11.6222 4.03448 9.9563 4.13223C8.29041 4.22998 6.7314 4.9847 5.62136 6.23071Z" />
</g>
</svg>
