<svg xmlns="http://www.w3.org/2000/svg" xmlns:xlink="http://www.w3.org/1999/xlink" width="40" height="40" viewBox="0 0 40 40"><defs><style>.a{fill:rgba(0,0,0,0);stroke:rgba(0,0,0,0);}.b{clip-path:url(#a);}.c{fill:#fff;}</style><clipPath id="a"><rect class="a" width="40" height="40" transform="translate(5487 4170)"/></clipPath></defs><g class="b" transform="translate(-5487 -4170)"><g transform="translate(5419.141 4078.201)"><path class="c" d="M101.763,110.088l-4.914-9.612A3.755,3.755,0,0,0,93.5,98.43H82.316a3.752,3.752,0,0,0-3.329,2.019l-5.017,9.612a3.755,3.755,0,0,0,0,3.477l5.017,9.612a3.755,3.755,0,0,0,3.329,2.019H93.5a3.754,3.754,0,0,0,3.345-2.046l4.914-9.614a3.755,3.755,0,0,0,0-3.419Zm-2.75,14.141A6.186,6.186,0,0,1,93.5,127.6H82.316a6.186,6.186,0,0,1-5.484-3.325l-5.018-9.613a6.186,6.186,0,0,1,0-5.725l5.017-9.614A6.186,6.186,0,0,1,82.316,96H93.5a6.19,6.19,0,0,1,5.509,3.37l4.914,9.614a6.185,6.185,0,0,1,0,5.632l-4.914,9.614Z" transform="translate(0 0)"/><path class="c" d="M333.449,340.5a7.049,7.049,0,1,1,7.049-7.049A7.049,7.049,0,0,1,333.449,340.5Zm0-2.431a4.619,4.619,0,1,0-4.619-4.619A4.619,4.619,0,0,0,333.449,338.068Z" transform="translate(-245.591 -221.65)"/></g></g></svg>