<svg width="24" height="24" viewBox="0 0 24 24" xmlns="http://www.w3.org/2000/svg">
<g id="icon/&#230;&#142;&#168;&#231;&#137;&#185;">
<g id="Twitter 1">
<g id="Group">
<path id="Vector" d="M20.7326 6.70275C20.1064 6.98024 19.4336 7.16775 18.7264 7.2525C19.4479 6.8205 20.0014 6.135 20.2624 5.319C19.5874 5.7195 18.8396 6.0105 18.0439 6.1665C17.4064 5.4885 16.4989 5.064 15.4939 5.064C13.5649 5.064 12.0004 6.6285 12.0004 8.55899C12.0004 8.83199 12.0319 9.0975 12.0904 9.354C9.18563 9.20775 6.61238 7.8165 4.88887 5.703C4.58887 6.2205 4.41638 6.8205 4.41638 7.4595C4.41638 8.6715 5.03363 9.74175 5.97038 10.368C5.39738 10.3492 4.85888 10.1925 4.38788 9.93075V9.97574C4.38788 11.6685 5.59163 13.0807 7.19063 13.4017C6.89663 13.4812 6.58838 13.5232 6.27038 13.5232C6.04538 13.5232 5.82563 13.5022 5.61263 13.4617C6.05738 14.8492 7.34738 15.8602 8.87663 15.8872C7.68038 16.8247 6.17363 17.3835 4.53713 17.3835C4.25513 17.3835 3.97688 17.367 3.70312 17.3347C5.24963 18.327 7.08563 18.9045 9.05813 18.9045C15.4856 18.9045 18.9994 13.581 18.9994 8.96399C18.9994 8.81399 18.9956 8.66249 18.9889 8.51249C19.6714 8.01899 20.2639 7.40475 20.7311 6.705L20.7326 6.70275Z"/>
</g>
</g>
</g>
</svg>
