<svg xmlns="http://www.w3.org/2000/svg" xmlns:xlink="http://www.w3.org/1999/xlink" width="48" height="48" viewBox="0 0 48 48"><defs><style>.a,.d{stroke:#6b7280;}.b{clip-path:url(#a);}.d,.f{fill:none;}.d{stroke-width:2px;}.e{stroke:none;}</style><clipPath id="a"><rect class="a" width="48" height="48" transform="translate(1232 3330.7)"/></clipPath></defs><g class="b" transform="translate(3378.7 -1232) rotate(90)"><path class="c" d="M-822.555-5.16l-5.374-5.374a1.193,1.193,0,0,1-.351-.871,1.2,1.2,0,0,1,.351-.889l5.374-5.374a1.2,1.2,0,0,1,.849-.352,1.194,1.194,0,0,1,.849.352,1.2,1.2,0,0,1,0,1.7l-3.323,3.323h17.473a1.2,1.2,0,0,1,1.2,1.2,1.2,1.2,0,0,1-1.2,1.2h-17.541l3.391,3.391a1.2,1.2,0,0,1,0,1.7,1.2,1.2,0,0,1-.849.352A1.2,1.2,0,0,1-822.555-5.16Zm9.624-15a1.2,1.2,0,0,1,0-1.7l3.323-3.323h-17.473a1.2,1.2,0,0,1-1.2-1.2,1.2,1.2,0,0,1,1.2-1.2h17.541l-3.391-3.391a1.2,1.2,0,0,1,0-1.7,1.2,1.2,0,0,1,1.7,0l5.374,5.374a1.193,1.193,0,0,1,.351.871,1.2,1.2,0,0,1-.351.889l-5.374,5.374a1.2,1.2,0,0,1-.849.352A1.2,1.2,0,0,1-812.931-20.16Z" transform="translate(2072.881 3373.608)"/><g class="d" transform="translate(1234 3332.7)"><circle class="e" cx="22" cy="22" r="22"/><circle class="f" cx="22" cy="22" r="21"/></g></g></svg>