<svg width="24" height="24" viewBox="0 0 24 24" fill="none" xmlns="http://www.w3.org/2000/svg">
<g id="icon/&#232;&#175;&#132;&#232;&#174;&#186;">
<path id="Subtract" fill-rule="evenodd" clip-rule="evenodd" d="M6.40084 17.811V21H6.40284L9.44184 19.313C10.2749 19.5457 11.1359 19.6632 12.0008 19.662C16.9108 19.662 20.9118 15.926 20.9108 11.332C20.9098 6.738 16.9098 3 11.9998 3C7.08984 3 3.08984 6.738 3.08984 11.332C3.10685 13.8937 4.33472 16.2964 6.40084 17.811ZM12 12C12.5523 12 13 11.5523 13 11C13 10.4477 12.5523 10 12 10C11.4477 10 11 10.4477 11 11C11 11.5523 11.4477 12 12 12ZM9 11C9 11.5523 8.55228 12 8 12C7.44772 12 7 11.5523 7 11C7 10.4477 7.44772 10 8 10C8.55228 10 9 10.4477 9 11ZM16 12C16.5523 12 17 11.5523 17 11C17 10.4477 16.5523 10 16 10C15.4477 10 15 10.4477 15 11C15 11.5523 15.4477 12 16 12Z" fill="white"/>
</g>
</svg>
