<svg xmlns="http://www.w3.org/2000/svg" xmlns:xlink="http://www.w3.org/1999/xlink" width="80" height="80" viewBox="0 0 80 80"><defs><style>.a{fill:rgba(0,0,0,0);stroke:rgba(0,0,0,0);}.b{clip-path:url(#a);}.c{fill:#060b19;}.d{fill:#abb5c7;}</style><clipPath id="a"><rect class="a" width="80" height="80" transform="translate(5462.392 4373)"/></clipPath></defs><g class="b" transform="translate(-5462.392 -4373)"><path class="c" d="M143.442,176.958l-23.5-13.571a9.157,9.157,0,0,0-9.157,0L87.275,176.958a9.157,9.157,0,0,0-4.579,7.931V212.03a9.158,9.158,0,0,0,4.579,7.931l23.505,13.571a9.158,9.158,0,0,0,9.157,0l23.505-13.571a9.157,9.157,0,0,0,4.579-7.93V184.889A9.158,9.158,0,0,0,143.442,176.958Z" transform="translate(5387.034 4214.54)"/><path class="d" d="M-822.555-5.16l-5.374-5.374a1.193,1.193,0,0,1-.351-.871,1.2,1.2,0,0,1,.351-.889l5.374-5.374a1.2,1.2,0,0,1,.849-.352,1.194,1.194,0,0,1,.849.352,1.2,1.2,0,0,1,0,1.7l-3.323,3.323h19.533a1.2,1.2,0,0,1,1.2,1.2,1.2,1.2,0,0,1-1.2,1.2h-19.6l3.391,3.391a1.2,1.2,0,0,1,0,1.7,1.2,1.2,0,0,1-.849.352A1.2,1.2,0,0,1-822.555-5.16Zm11.623-17a1.2,1.2,0,0,1,0-1.7l3.323-3.323h-19.5a1.2,1.2,0,0,1-1.2-1.2,1.2,1.2,0,0,1,1.2-1.2h19.566l-3.391-3.391a1.2,1.2,0,0,1,0-1.7,1.2,1.2,0,0,1,1.7,0l5.374,5.374a1.194,1.194,0,0,1,.351.871,1.2,1.2,0,0,1-.351.889l-5.374,5.374a1.2,1.2,0,0,1-.849.352A1.2,1.2,0,0,1-810.932-22.16Z" transform="translate(5482.479 5228.877) rotate(90)"/></g></svg>