<svg width="32" height="32" viewBox="0 0 32 32" xmlns="http://www.w3.org/2000/svg">
<g id="icon/&#231;&#148;&#168;&#230;&#136;&#183;&#231;&#153;&#187;&#229;&#189;&#149;">
<path id="Vector" d="M16 7.6125C17.595 7.6125 18.8875 8.905 18.8875 10.5C18.8875 12.095 17.595 13.3875 16 13.3875C14.405 13.3875 13.1125 12.095 13.1125 10.5C13.1125 8.905 14.405 7.6125 16 7.6125ZM16 19.9875C20.0837 19.9875 24.3875 21.995 24.3875 22.875V24.3875H7.6125V22.875C7.6125 21.995 11.9162 19.9875 16 19.9875ZM16 5C12.9612 5 10.5 7.46125 10.5 10.5C10.5 13.5387 12.9612 16 16 16C19.0387 16 21.5 13.5387 21.5 10.5C21.5 7.46125 19.0387 5 16 5ZM16 17.375C12.3287 17.375 5 19.2175 5 22.875V26C5 26.5523 5.44772 27 6 27H26C26.5523 27 27 26.5523 27 26V22.875C27 19.2175 19.6713 17.375 16 17.375Z" />
</g>
</svg>
