<svg xmlns="http://www.w3.org/2000/svg" xmlns:xlink="http://www.w3.org/1999/xlink" width="40" height="40" viewBox="0 0 40 40"><defs><style>.a{stroke:rgba(0,0,0,0);}.b{clip-path:url(#a);}</style><clipPath id="a"><rect class="a" width="40" height="40" transform="translate(527.628 88)"/></clipPath></defs><g class="b" transform="translate(-527.628 -88)"><path class="c" d="M60.729,85.5H38.223A3.921,3.921,0,0,0,34.3,89.423v19.318a3.921,3.921,0,0,0,3.919,3.919H60.729a3.921,3.921,0,0,0,3.919-3.919V89.423A3.921,3.921,0,0,0,60.729,85.5Zm1.756,16.749H53.736a3.187,3.187,0,1,1,0-6.374h8.749v6.374Zm0,6.488a1.759,1.759,0,0,1-1.756,1.756H38.223a1.759,1.759,0,0,1-1.756-1.756V89.423a1.749,1.749,0,0,1,1.756-1.756H60.729a1.759,1.759,0,0,1,1.756,1.756v4.309H53.736a5.35,5.35,0,1,0,0,10.7h8.749v4.309ZM54.5,99.082a1.415,1.415,0,1,1,1.415,1.415A1.416,1.416,0,0,1,54.5,99.082Z" transform="translate(498.152 8.918)"/></g></svg>